<mxfile host="Electron" modified="2024-05-24T20:43:14.525Z" agent="Mozilla/5.0 (Windows NT 10.0; Win64; x64) AppleWebKit/537.36 (KHTML, like Gecko) draw.io/24.1.0 Chrome/120.0.6099.109 Electron/28.1.0 Safari/537.36" etag="FxXTJFz-Q6_h6gHQ1HWe" version="24.1.0" type="device">
  <diagram name="Page-1" id="7IBXnyAs4VqRhFYpzWoj">
    <mxGraphModel dx="1434" dy="836" grid="1" gridSize="10" guides="1" tooltips="1" connect="1" arrows="1" fold="1" page="1" pageScale="1" pageWidth="850" pageHeight="1100" math="0" shadow="0">
      <root>
        <mxCell id="0" />
        <mxCell id="1" parent="0" />
        <mxCell id="mCsYGJK6bvn3r_lMrf8S-4" style="edgeStyle=orthogonalEdgeStyle;rounded=0;orthogonalLoop=1;jettySize=auto;html=1;exitX=0.5;exitY=1;exitDx=0;exitDy=0;entryX=0.5;entryY=0;entryDx=0;entryDy=0;endArrow=none;endFill=0;" parent="1" source="mCsYGJK6bvn3r_lMrf8S-5" target="mCsYGJK6bvn3r_lMrf8S-9" edge="1">
          <mxGeometry relative="1" as="geometry" />
        </mxCell>
        <mxCell id="mCsYGJK6bvn3r_lMrf8S-5" value="Requests" style="shape=process;whiteSpace=wrap;html=1;backgroundOutline=1;" parent="1" vertex="1">
          <mxGeometry x="210" y="360" width="120" height="60" as="geometry" />
        </mxCell>
        <mxCell id="mCsYGJK6bvn3r_lMrf8S-8" style="edgeStyle=orthogonalEdgeStyle;rounded=0;orthogonalLoop=1;jettySize=auto;html=1;exitX=0.5;exitY=1;exitDx=0;exitDy=0;endArrow=none;endFill=0;" parent="1" source="mCsYGJK6bvn3r_lMrf8S-9" target="mCsYGJK6bvn3r_lMrf8S-11" edge="1">
          <mxGeometry relative="1" as="geometry" />
        </mxCell>
        <mxCell id="mCsYGJK6bvn3r_lMrf8S-9" value="N: Requests.Count" style="rounded=0;whiteSpace=wrap;html=1;" parent="1" vertex="1">
          <mxGeometry x="210" y="450" width="120" height="60" as="geometry" />
        </mxCell>
        <mxCell id="mCsYGJK6bvn3r_lMrf8S-10" style="edgeStyle=orthogonalEdgeStyle;rounded=0;orthogonalLoop=1;jettySize=auto;html=1;exitX=0.5;exitY=1;exitDx=0;exitDy=0;endArrow=none;endFill=0;" parent="1" source="mCsYGJK6bvn3r_lMrf8S-11" target="mCsYGJK6bvn3r_lMrf8S-13" edge="1">
          <mxGeometry relative="1" as="geometry" />
        </mxCell>
        <mxCell id="mCsYGJK6bvn3r_lMrf8S-11" value="Count: =0&lt;br&gt;TimeTotal:= 0" style="rounded=0;whiteSpace=wrap;html=1;" parent="1" vertex="1">
          <mxGeometry x="210" y="530" width="120" height="60" as="geometry" />
        </mxCell>
        <mxCell id="mCsYGJK6bvn3r_lMrf8S-12" style="edgeStyle=orthogonalEdgeStyle;rounded=0;orthogonalLoop=1;jettySize=auto;html=1;entryX=0.5;entryY=0;entryDx=0;entryDy=0;endArrow=none;endFill=0;" parent="1" source="mCsYGJK6bvn3r_lMrf8S-13" target="mCsYGJK6bvn3r_lMrf8S-14" edge="1">
          <mxGeometry relative="1" as="geometry" />
        </mxCell>
        <mxCell id="mCsYGJK6bvn3r_lMrf8S-13" value="i:= 1, N, 1" style="shape=hexagon;perimeter=hexagonPerimeter2;whiteSpace=wrap;html=1;fixedSize=1;" parent="1" vertex="1">
          <mxGeometry x="195" y="620" width="150" height="60" as="geometry" />
        </mxCell>
        <mxCell id="mCsYGJK6bvn3r_lMrf8S-14" value="Request:= Requests[i]" style="rounded=0;whiteSpace=wrap;html=1;" parent="1" vertex="1">
          <mxGeometry x="185" y="710" width="170" height="60" as="geometry" />
        </mxCell>
        <mxCell id="mCsYGJK6bvn3r_lMrf8S-15" value="Count:= Count +1&lt;br&gt;TimeTotal := TimeTotal + Request.Time" style="rounded=0;whiteSpace=wrap;html=1;" parent="1" vertex="1">
          <mxGeometry x="380" y="900" width="180" height="60" as="geometry" />
        </mxCell>
        <mxCell id="mCsYGJK6bvn3r_lMrf8S-16" style="edgeStyle=orthogonalEdgeStyle;rounded=0;orthogonalLoop=1;jettySize=auto;html=1;exitX=1;exitY=0.5;exitDx=0;exitDy=0;exitPerimeter=0;endArrow=none;endFill=0;" parent="1" source="mCsYGJK6bvn3r_lMrf8S-17" edge="1">
          <mxGeometry relative="1" as="geometry">
            <mxPoint x="470" y="900" as="targetPoint" />
          </mxGeometry>
        </mxCell>
        <mxCell id="3Jc9s3D_iRNrNSQK-cdy-5" value="Yes" style="edgeLabel;html=1;align=center;verticalAlign=middle;resizable=0;points=[];" parent="mCsYGJK6bvn3r_lMrf8S-16" vertex="1" connectable="0">
          <mxGeometry x="-0.6899" y="-1" relative="1" as="geometry">
            <mxPoint x="1" as="offset" />
          </mxGeometry>
        </mxCell>
        <mxCell id="mCsYGJK6bvn3r_lMrf8S-17" value="Request.Status = &quot;done&quot;" style="strokeWidth=2;html=1;shape=mxgraph.flowchart.decision;whiteSpace=wrap;" parent="1" vertex="1">
          <mxGeometry x="167.5" y="800" width="205" height="80" as="geometry" />
        </mxCell>
        <mxCell id="mCsYGJK6bvn3r_lMrf8S-20" value="" style="endArrow=none;html=1;rounded=0;entryX=0;entryY=0.5;entryDx=0;entryDy=0;entryPerimeter=0;exitX=0.5;exitY=1;exitDx=0;exitDy=0;" parent="1" target="mCsYGJK6bvn3r_lMrf8S-17" edge="1">
          <mxGeometry width="50" height="50" relative="1" as="geometry">
            <mxPoint x="470" y="960" as="sourcePoint" />
            <mxPoint x="470" y="890" as="targetPoint" />
            <Array as="points">
              <mxPoint x="470" y="1000" />
              <mxPoint x="290" y="1000" />
              <mxPoint x="110" y="1000" />
              <mxPoint x="110" y="920" />
              <mxPoint x="110" y="840" />
            </Array>
          </mxGeometry>
        </mxCell>
        <mxCell id="3Jc9s3D_iRNrNSQK-cdy-4" value="No" style="edgeLabel;html=1;align=center;verticalAlign=middle;resizable=0;points=[];" parent="mCsYGJK6bvn3r_lMrf8S-20" vertex="1" connectable="0">
          <mxGeometry x="0.8785" y="2" relative="1" as="geometry">
            <mxPoint as="offset" />
          </mxGeometry>
        </mxCell>
        <mxCell id="mCsYGJK6bvn3r_lMrf8S-21" value="" style="endArrow=classic;html=1;rounded=0;entryX=0;entryY=0.5;entryDx=0;entryDy=0;" parent="1" target="mCsYGJK6bvn3r_lMrf8S-13" edge="1">
          <mxGeometry width="50" height="50" relative="1" as="geometry">
            <mxPoint x="270" y="1000" as="sourcePoint" />
            <mxPoint x="450" y="830" as="targetPoint" />
            <Array as="points">
              <mxPoint x="270" y="1040" />
              <mxPoint x="60" y="1040" />
              <mxPoint x="60" y="840" />
              <mxPoint x="60" y="650" />
            </Array>
          </mxGeometry>
        </mxCell>
        <mxCell id="mCsYGJK6bvn3r_lMrf8S-22" style="edgeStyle=orthogonalEdgeStyle;rounded=0;orthogonalLoop=1;jettySize=auto;html=1;entryX=0.5;entryY=0;entryDx=0;entryDy=0;entryPerimeter=0;endArrow=none;endFill=0;" parent="1" source="mCsYGJK6bvn3r_lMrf8S-14" target="mCsYGJK6bvn3r_lMrf8S-17" edge="1">
          <mxGeometry relative="1" as="geometry" />
        </mxCell>
        <mxCell id="mCsYGJK6bvn3r_lMrf8S-24" value="" style="endArrow=none;html=1;rounded=0;exitX=1;exitY=0.5;exitDx=0;exitDy=0;entryX=1;entryY=0.5;entryDx=0;entryDy=0;endFill=0;" parent="1" source="mCsYGJK6bvn3r_lMrf8S-13" edge="1">
          <mxGeometry width="50" height="50" relative="1" as="geometry">
            <mxPoint x="400" y="880" as="sourcePoint" />
            <mxPoint x="330" y="1140" as="targetPoint" />
            <Array as="points">
              <mxPoint x="600" y="650" />
              <mxPoint x="600" y="900" />
              <mxPoint x="600" y="1140" />
            </Array>
          </mxGeometry>
        </mxCell>
        <mxCell id="3Jc9s3D_iRNrNSQK-cdy-7" style="edgeStyle=orthogonalEdgeStyle;rounded=0;orthogonalLoop=1;jettySize=auto;html=1;endArrow=none;endFill=0;" parent="1" source="mCsYGJK6bvn3r_lMrf8S-25" target="3Jc9s3D_iRNrNSQK-cdy-6" edge="1">
          <mxGeometry relative="1" as="geometry" />
        </mxCell>
        <mxCell id="mCsYGJK6bvn3r_lMrf8S-25" value="AverageTime :=&lt;div&gt;&amp;nbsp;TimeTotal / Count&lt;/div&gt;" style="rounded=0;whiteSpace=wrap;html=1;" parent="1" vertex="1">
          <mxGeometry x="180" y="1110" width="150" height="60" as="geometry" />
        </mxCell>
        <mxCell id="3Jc9s3D_iRNrNSQK-cdy-3" style="edgeStyle=orthogonalEdgeStyle;rounded=0;orthogonalLoop=1;jettySize=auto;html=1;entryX=0.5;entryY=0;entryDx=0;entryDy=0;endArrow=none;endFill=0;" parent="1" source="3Jc9s3D_iRNrNSQK-cdy-1" target="mCsYGJK6bvn3r_lMrf8S-5" edge="1">
          <mxGeometry relative="1" as="geometry" />
        </mxCell>
        <mxCell id="3Jc9s3D_iRNrNSQK-cdy-1" value="Function Average" style="strokeWidth=2;html=1;shape=mxgraph.flowchart.terminator;whiteSpace=wrap;" parent="1" vertex="1">
          <mxGeometry x="220" y="260" width="100" height="60" as="geometry" />
        </mxCell>
        <mxCell id="3Jc9s3D_iRNrNSQK-cdy-8" style="edgeStyle=orthogonalEdgeStyle;rounded=0;orthogonalLoop=1;jettySize=auto;html=1;endArrow=none;endFill=0;" parent="1" source="3Jc9s3D_iRNrNSQK-cdy-2" target="mCsYGJK6bvn3r_lMrf8S-5" edge="1">
          <mxGeometry relative="1" as="geometry" />
        </mxCell>
        <mxCell id="3Jc9s3D_iRNrNSQK-cdy-2" value="DB Request" style="strokeWidth=2;html=1;shape=mxgraph.flowchart.direct_data;whiteSpace=wrap;" parent="1" vertex="1">
          <mxGeometry x="400" y="360" width="120" height="60" as="geometry" />
        </mxCell>
        <mxCell id="3Jc9s3D_iRNrNSQK-cdy-6" value="Return" style="strokeWidth=2;html=1;shape=mxgraph.flowchart.terminator;whiteSpace=wrap;" parent="1" vertex="1">
          <mxGeometry x="205" y="1200" width="100" height="60" as="geometry" />
        </mxCell>
      </root>
    </mxGraphModel>
  </diagram>
</mxfile>
